<?xml version="1.0" ?><svg id="solid" viewBox="0 0 512 512" xmlns="http://www.w3.org/2000/svg"><title/><path d="M479.993,256.121c-.385,54.4-15.522,113.737-40.5,158.73C410.454,467.181,370.856,496,328,496a103.454,103.454,0,0,1-58.369-17.918,24.127,24.127,0,0,0-27.262,0A103.454,103.454,0,0,1,184,496c-43.095,0-82.778-28.726-111.74-80.887-24.855-44.763-39.9-103.992-40.251-158.438C31.551,185.421,88.3,126.8,158.518,126.008a128.251,128.251,0,0,1,82.352,28.774,23.4,23.4,0,0,0,2.093,1.521,3.8,3.8,0,0,0,5.8-2.884c.457-4.625,1.188-10.325,2.361-16.772a103.964,103.964,0,0,1-99.7-109.681,8,8,0,0,1,7.545-7.546A103.915,103.915,0,0,1,264.239,93.061c11.8-26.838,29.342-47.983,51.521-61.845a8,8,0,1,1,8.48,13.568C280,72.435,268.245,125.436,265.126,151.2a3.809,3.809,0,0,0,6.111,3.489l.064-.052A128.206,128.206,0,0,1,352.034,126q.644,0,1.287.007C423.669,126.717,480.494,185.086,479.993,256.121Z" style="fill:#3b3b3b"/></svg>